<?xml version="1.0" encoding="UTF-8" standalone="no"?>
<!DOCTYPE svg PUBLIC "-//W3C//DTD SVG 1.1//EN" "http://www.w3.org/Graphics/SVG/1.1/DTD/svg11.dtd">
<svg width="100%" height="100%" viewBox="0 0 1715 1740" version="1.1" xmlns="http://www.w3.org/2000/svg" xmlns:xlink="http://www.w3.org/1999/xlink" xml:space="preserve" xmlns:serif="http://www.serif.com/" style="fill-rule:evenodd;clip-rule:evenodd;stroke-linecap:round;">
    <g transform="matrix(1,0,0,1,-1002.84494,-2575.70192)">
        <g transform="matrix(0.634528,0,0,0.634528,1876.684182,2053.580171)">
            <path d="M-144.962,1059.488C-118.917,1019.367 -74.334,995.155 -26.5,995.155C21.334,995.155 65.917,1019.367 91.962,1059.488C91.962,1059.489 91.963,1059.49 91.963,1059.491C108.535,1085.019 134.965,1102.516 164.938,1107.801C194.911,1113.086 225.732,1105.684 250.035,1087.363C250.036,1087.362 250.037,1087.362 250.037,1087.361C288.234,1058.567 338.409,1051.064 383.358,1067.424C428.307,1083.784 461.921,1121.784 472.672,1168.394C472.673,1168.395 472.673,1168.396 472.673,1168.397C479.514,1198.053 498.366,1223.535 524.724,1238.752C551.081,1253.97 582.576,1257.555 611.679,1248.652C611.68,1248.651 611.681,1248.651 611.682,1248.651C657.423,1234.657 707.139,1244.767 743.782,1275.514C780.424,1306.261 799.014,1353.466 793.176,1400.942C793.176,1400.943 793.175,1400.944 793.175,1400.945C789.461,1431.153 798.461,1461.546 818.024,1484.86C837.587,1508.175 865.956,1522.316 896.349,1523.903C896.35,1523.903 896.351,1523.903 896.352,1523.903C944.121,1526.398 987.381,1552.902 1011.298,1594.327C1035.214,1635.753 1036.538,1686.469 1014.814,1729.085C1014.813,1729.086 1014.813,1729.087 1014.813,1729.088C1000.99,1756.203 999.052,1787.841 1009.462,1816.441C1019.871,1845.04 1041.693,1868.031 1069.71,1879.918C1069.711,1879.918 1069.712,1879.919 1069.713,1879.919C1113.748,1898.601 1145.334,1938.302 1153.64,1985.41C1161.946,2032.517 1145.844,2080.627 1110.854,2113.243C1110.854,2113.244 1110.853,2113.244 1110.852,2113.245C1088.59,2133.997 1075.947,2163.065 1075.947,2193.5C1075.947,2223.935 1088.59,2253.003 1110.852,2273.755C1110.853,2273.756 1110.854,2273.756 1110.854,2273.757C1145.844,2306.373 1161.946,2354.483 1153.64,2401.59C1145.334,2448.698 1113.748,2488.399 1069.713,2507.081C1069.712,2507.081 1069.711,2507.082 1069.71,2507.082C1041.693,2518.969 1019.871,2541.96 1009.462,2570.559C999.052,2599.159 1000.99,2630.797 1014.813,2657.912C1014.813,2657.913 1014.813,2657.914 1014.814,2657.915C1036.538,2700.531 1035.214,2751.247 1011.298,2792.673C987.381,2834.098 944.121,2860.602 896.352,2863.097C896.351,2863.097 896.35,2863.097 896.349,2863.097C865.956,2864.684 837.587,2878.825 818.024,2902.14C798.461,2925.454 789.461,2955.847 793.175,2986.055C793.175,2986.056 793.176,2986.057 793.176,2986.058C799.014,3033.534 780.424,3080.739 743.782,3111.486C707.139,3142.233 657.423,3152.343 611.682,3138.349C611.681,3138.349 611.68,3138.349 611.679,3138.348C582.576,3129.445 551.081,3133.03 524.724,3148.248C498.366,3163.465 479.514,3188.947 472.673,3218.603C472.673,3218.604 472.673,3218.605 472.672,3218.606C461.921,3265.216 428.307,3303.216 383.358,3319.576C338.409,3335.936 288.234,3328.433 250.037,3299.639C250.037,3299.638 250.036,3299.638 250.035,3299.637C225.732,3281.316 194.911,3273.914 164.938,3279.199C134.965,3284.484 108.535,3301.981 91.963,3327.509C91.963,3327.51 91.962,3327.511 91.962,3327.512C65.917,3367.633 21.334,3391.845 -26.5,3391.845C-74.334,3391.845 -118.917,3367.633 -144.962,3327.512C-144.962,3327.511 -144.963,3327.51 -144.963,3327.509C-161.535,3301.981 -187.965,3284.484 -217.938,3279.199C-247.911,3273.914 -278.732,3281.316 -303.035,3299.637C-303.036,3299.638 -303.037,3299.638 -303.037,3299.639C-341.234,3328.433 -391.409,3335.936 -436.358,3319.576C-481.307,3303.216 -514.921,3265.216 -525.672,3218.606C-525.673,3218.605 -525.673,3218.604 -525.673,3218.603C-532.514,3188.947 -551.366,3163.465 -577.724,3148.248C-604.081,3133.03 -635.576,3129.445 -664.679,3138.348C-664.68,3138.349 -664.681,3138.349 -664.682,3138.349C-710.423,3152.343 -760.139,3142.233 -796.782,3111.486C-833.424,3080.739 -852.014,3033.534 -846.176,2986.058C-846.176,2986.057 -846.175,2986.056 -846.175,2986.055C-842.461,2955.847 -851.461,2925.454 -871.024,2902.14C-890.587,2878.825 -918.956,2864.684 -949.349,2863.097C-949.35,2863.097 -949.351,2863.097 -949.352,2863.097C-997.121,2860.602 -1040.381,2834.098 -1064.298,2792.673C-1088.214,2751.247 -1089.538,2700.531 -1067.814,2657.915C-1067.813,2657.914 -1067.813,2657.913 -1067.813,2657.912C-1053.99,2630.797 -1052.052,2599.159 -1062.462,2570.559C-1072.871,2541.96 -1094.693,2518.969 -1122.71,2507.082C-1122.711,2507.082 -1122.712,2507.081 -1122.713,2507.081C-1166.748,2488.399 -1198.334,2448.698 -1206.64,2401.59C-1214.946,2354.483 -1198.844,2306.373 -1163.854,2273.757C-1163.854,2273.756 -1163.853,2273.756 -1163.852,2273.755C-1141.59,2253.003 -1128.947,2223.935 -1128.947,2193.5C-1128.947,2163.065 -1141.59,2133.997 -1163.852,2113.245C-1163.853,2113.244 -1163.854,2113.244 -1163.854,2113.243C-1198.844,2080.627 -1214.946,2032.517 -1206.64,1985.41C-1198.334,1938.302 -1166.748,1898.601 -1122.713,1879.919C-1122.712,1879.919 -1122.711,1879.918 -1122.71,1879.918C-1094.693,1868.031 -1072.871,1845.04 -1062.462,1816.441C-1052.052,1787.841 -1053.99,1756.203 -1067.813,1729.088C-1067.813,1729.087 -1067.813,1729.086 -1067.814,1729.085C-1089.538,1686.469 -1088.214,1635.753 -1064.298,1594.327C-1040.381,1552.902 -997.121,1526.398 -949.352,1523.903C-949.351,1523.903 -949.35,1523.903 -949.349,1523.903C-918.956,1522.316 -890.587,1508.175 -871.024,1484.86C-851.461,1461.546 -842.461,1431.153 -846.175,1400.945C-846.175,1400.944 -846.176,1400.943 -846.176,1400.942C-852.014,1353.466 -833.424,1306.261 -796.782,1275.514C-760.139,1244.767 -710.423,1234.657 -664.682,1248.651C-664.681,1248.651 -664.68,1248.651 -664.679,1248.652C-635.576,1257.555 -604.081,1253.97 -577.724,1238.752C-551.366,1223.535 -532.514,1198.053 -525.673,1168.397C-525.673,1168.396 -525.673,1168.395 -525.672,1168.394C-514.921,1121.784 -481.307,1083.784 -436.358,1067.424C-391.409,1051.064 -341.234,1058.567 -303.037,1087.361C-303.037,1087.362 -303.036,1087.362 -303.035,1087.363C-278.732,1105.684 -247.911,1113.086 -217.938,1107.801C-187.965,1102.516 -161.535,1085.019 -144.963,1059.491C-144.963,1059.49 -144.962,1059.489 -144.962,1059.488Z" style="fill:none;stroke:#e9a84a;stroke-width:26.27px;"/>
        </g>
    </g>
</svg>
