<svg width="25" height="18" viewBox="0 0 25 18" fill="none" xmlns="http://www.w3.org/2000/svg">
<path d="M12.8036 17.8438L4.45263 17.8438C3.50245 17.8438 2.50211 17.7435 1.60209 17.3938C1.10192 17.1931 0.451982 16.4436 0.451982 15.9434C0.20118 11.793 0.10086 7.59244 0.00197265 3.44203C-0.0481878 0.840857 0.851831 0.141481 3.40284 0.191641C7.20356 0.291961 11.0043 0.19164 14.8036 0.19164C16.5542 0.19164 18.3041 0.291955 20.1041 0.342115C20.5039 0.342115 20.9539 0.342122 21.3044 0.19164C22.8543 -0.358691 24.0546 0.291963 24.0546 1.94152C24.1047 5.7924 23.9543 9.64257 23.9041 13.4426L23.9041 15.492C23.9543 17.3422 23.3036 18 21.4534 18L12.8531 18C12.8029 18 12.8029 17.9498 12.8029 17.8567L12.8036 17.8438ZM20.8049 3.39187L3.35197 3.39187L3.35197 7.79165L20.8049 7.79165L20.8049 3.39187ZM21.0055 10.893L3.60205 10.893L3.60205 14.7933L20.7547 14.7933C20.8049 13.5436 20.9052 12.3928 21.0055 10.893Z" fill="white"/>
</svg>
