<?xml version="1.0" encoding="UTF-8" standalone="no"?>
<!DOCTYPE svg PUBLIC "-//W3C//DTD SVG 1.1//EN" "http://www.w3.org/Graphics/SVG/1.1/DTD/svg11.dtd">
<svg width="100%" height="100%" viewBox="0 0 1439 1461" version="1.1" xmlns="http://www.w3.org/2000/svg" xmlns:xlink="http://www.w3.org/1999/xlink" xml:space="preserve" xmlns:serif="http://www.serif.com/" style="fill-rule:evenodd;clip-rule:evenodd;stroke-linecap:round;">
    <g transform="matrix(1,0,0,1,-2083.690329,-324.38519)">
        <g transform="matrix(0.634528,0,0,0.634528,-61.870067,-454.585972)">
            <g transform="matrix(0.853399,0,0,0.853399,4537.470429,506.282518)">
                <path d="M-117.771,1017.601C-97.704,986.689 -63.354,968.034 -26.5,968.034C10.354,968.034 44.704,986.689 64.771,1017.601C64.772,1017.603 64.773,1017.605 64.774,1017.607C88.376,1053.965 126.02,1078.886 168.709,1086.413C211.398,1093.94 255.295,1083.397 289.909,1057.304C289.911,1057.303 289.913,1057.301 289.914,1057.3C319.344,1035.115 358.002,1029.334 392.634,1041.939C427.266,1054.544 453.164,1083.822 461.448,1119.733C461.448,1119.735 461.449,1119.737 461.449,1119.739C471.192,1161.977 498.043,1198.271 535.583,1219.944C573.123,1241.618 617.979,1246.724 659.429,1234.043C659.431,1234.043 659.434,1234.042 659.436,1234.041C694.678,1223.26 732.982,1231.049 761.214,1254.739C789.446,1278.428 803.769,1314.798 799.271,1351.377C799.27,1351.379 799.27,1351.381 799.27,1351.383C793.979,1394.407 806.797,1437.694 834.661,1470.9C862.524,1504.106 902.928,1524.247 946.216,1526.507C946.218,1526.507 946.221,1526.508 946.223,1526.508C983.027,1528.43 1016.357,1548.85 1034.784,1580.767C1053.212,1612.684 1054.231,1651.759 1037.494,1684.594C1037.493,1684.595 1037.492,1684.597 1037.491,1684.599C1017.804,1723.218 1015.044,1768.28 1029.87,1809.013C1044.696,1849.746 1075.775,1882.491 1115.679,1899.421C1115.681,1899.421 1115.683,1899.422 1115.685,1899.423C1149.613,1913.817 1173.948,1944.406 1180.348,1980.7C1186.748,2016.995 1174.341,2054.062 1147.383,2079.192C1147.382,2079.193 1147.38,2079.195 1147.379,2079.196C1115.671,2108.753 1097.665,2150.153 1097.665,2193.5C1097.665,2236.847 1115.671,2278.247 1147.379,2307.804C1147.38,2307.805 1147.382,2307.807 1147.383,2307.808C1174.341,2332.938 1186.748,2370.005 1180.348,2406.3C1173.948,2442.594 1149.613,2473.183 1115.685,2487.577C1115.683,2487.578 1115.681,2487.579 1115.679,2487.579C1075.775,2504.509 1044.696,2537.254 1029.87,2577.987C1015.044,2618.72 1017.804,2663.782 1037.491,2702.401C1037.492,2702.403 1037.493,2702.405 1037.494,2702.406C1054.231,2735.241 1053.212,2774.316 1034.784,2806.233C1016.357,2838.15 983.027,2858.57 946.223,2860.492C946.221,2860.492 946.218,2860.493 946.216,2860.493C902.928,2862.753 862.524,2882.894 834.661,2916.1C806.797,2949.306 793.979,2992.593 799.27,3035.617C799.27,3035.619 799.27,3035.621 799.271,3035.623C803.769,3072.202 789.446,3108.572 761.214,3132.261C732.982,3155.951 694.678,3163.74 659.436,3152.959C659.434,3152.958 659.431,3152.957 659.429,3152.957C617.979,3140.276 573.123,3145.382 535.583,3167.056C498.043,3188.729 471.192,3225.023 461.449,3267.261C461.449,3267.263 461.448,3267.265 461.448,3267.267C453.164,3303.178 427.266,3332.456 392.634,3345.061C358.002,3357.666 319.344,3351.885 289.914,3329.7C289.913,3329.699 289.911,3329.697 289.909,3329.696C255.295,3303.603 211.398,3293.06 168.709,3300.587C126.02,3308.114 88.376,3333.035 64.774,3369.393C64.773,3369.395 64.772,3369.397 64.771,3369.399C44.704,3400.311 10.354,3418.966 -26.5,3418.966C-63.354,3418.966 -97.704,3400.311 -117.771,3369.399C-117.772,3369.397 -117.773,3369.395 -117.774,3369.393C-141.376,3333.035 -179.02,3308.114 -221.709,3300.587C-264.398,3293.06 -308.295,3303.603 -342.909,3329.696C-342.911,3329.697 -342.913,3329.699 -342.914,3329.7C-372.344,3351.885 -411.002,3357.666 -445.634,3345.061C-480.266,3332.456 -506.164,3303.178 -514.448,3267.267C-514.448,3267.265 -514.449,3267.263 -514.449,3267.261C-524.192,3225.023 -551.043,3188.729 -588.583,3167.056C-626.123,3145.382 -670.979,3140.276 -712.429,3152.957C-712.431,3152.957 -712.434,3152.958 -712.436,3152.959C-747.678,3163.74 -785.982,3155.951 -814.214,3132.261C-842.446,3108.572 -856.769,3072.202 -852.271,3035.623C-852.27,3035.621 -852.27,3035.619 -852.27,3035.617C-846.979,2992.593 -859.797,2949.306 -887.661,2916.1C-915.524,2882.894 -955.928,2862.753 -999.216,2860.493C-999.218,2860.493 -999.221,2860.492 -999.223,2860.492C-1036.027,2858.57 -1069.357,2838.15 -1087.784,2806.233C-1106.212,2774.316 -1107.231,2735.241 -1090.494,2702.406C-1090.493,2702.405 -1090.492,2702.403 -1090.491,2702.401C-1070.804,2663.782 -1068.044,2618.72 -1082.87,2577.987C-1097.696,2537.254 -1128.775,2504.509 -1168.679,2487.579C-1168.681,2487.579 -1168.683,2487.578 -1168.685,2487.577C-1202.613,2473.183 -1226.948,2442.594 -1233.348,2406.3C-1239.748,2370.005 -1227.341,2332.938 -1200.383,2307.808C-1200.382,2307.807 -1200.38,2307.805 -1200.379,2307.804C-1168.671,2278.247 -1150.665,2236.847 -1150.665,2193.5C-1150.665,2150.153 -1168.671,2108.753 -1200.379,2079.196C-1200.38,2079.195 -1200.382,2079.193 -1200.383,2079.192C-1227.341,2054.062 -1239.748,2016.995 -1233.348,1980.7C-1226.948,1944.406 -1202.613,1913.817 -1168.685,1899.423C-1168.683,1899.422 -1168.681,1899.421 -1168.679,1899.421C-1128.775,1882.491 -1097.696,1849.746 -1082.87,1809.013C-1068.044,1768.28 -1070.804,1723.218 -1090.491,1684.599C-1090.492,1684.597 -1090.493,1684.595 -1090.494,1684.594C-1107.231,1651.759 -1106.212,1612.684 -1087.784,1580.767C-1069.357,1548.85 -1036.027,1528.43 -999.223,1526.508C-999.221,1526.508 -999.218,1526.507 -999.216,1526.507C-955.928,1524.247 -915.524,1504.106 -887.661,1470.9C-859.797,1437.694 -846.979,1394.407 -852.27,1351.383C-852.27,1351.381 -852.27,1351.379 -852.271,1351.377C-856.769,1314.798 -842.446,1278.428 -814.214,1254.739C-785.982,1231.049 -747.678,1223.26 -712.436,1234.041C-712.434,1234.042 -712.431,1234.043 -712.429,1234.043C-670.979,1246.724 -626.123,1241.618 -588.583,1219.944C-551.043,1198.271 -524.192,1161.977 -514.449,1119.739C-514.449,1119.737 -514.448,1119.735 -514.448,1119.733C-506.164,1083.822 -480.266,1054.544 -445.634,1041.939C-411.002,1029.334 -372.344,1035.115 -342.914,1057.3C-342.913,1057.301 -342.911,1057.303 -342.909,1057.304C-308.295,1083.397 -264.398,1093.94 -221.709,1086.413C-179.02,1078.886 -141.376,1053.965 -117.774,1017.607C-117.773,1017.605 -117.772,1017.603 -117.771,1017.601Z" style="fill:none;stroke:black;stroke-width:5px;"/>
            </g>
        </g>
    </g>
</svg>
