<svg width="48" height="48" viewBox="0 0 48 48" fill="none" xmlns="http://www.w3.org/2000/svg">
<g clip-path="url(#clip0_6750_3062)">
<rect width="48" height="48" fill="#EFE7DE"/>
<path d="M23.6289 54.1808L7.0271 24H17.5897L27.2764 41.6044C28.4586 43.7547 28.7382 46.2866 28.0538 48.643C27.3694 50.9995 25.7769 52.9876 23.6268 54.1701L23.6289 54.1808ZM42.767 44.5812L31.4478 24.0086H20.8873L37.487 54.1808L42.767 44.5812Z" fill="black"/>
<path d="M51.2249 26.7653C51.2256 27.2504 51.0989 27.7272 50.8572 28.1478L47.9873 33.2552H39.7436L34.7124 24.0086L48.4592 24.0022C48.9443 24.0025 49.4208 24.1303 49.841 24.3728C50.2611 24.6153 50.6101 24.964 50.853 25.3839C51.0959 25.8038 51.2242 26.2802 51.2249 26.7653Z" fill="black"/>
</g>
<defs>
<clipPath id="clip0_6750_3062">
<rect width="48" height="48" rx="12" fill="white"/>
</clipPath>
</defs>
</svg>
