<svg width="48" height="48" viewBox="0 0 48 48" fill="none" xmlns="http://www.w3.org/2000/svg">
<g clip-path="url(#clip0_6750_3062)">
<rect width="48" height="48" fill="black"/>
<path d="M19.6006 37.3116L7.11182 14.608H15.0576L22.3445 27.851C23.2338 29.4686 23.4442 31.3732 22.9293 33.1458C22.4144 34.9185 21.2165 36.4141 19.599 37.3036L19.6006 37.3116ZM33.9974 30.0903L25.4824 14.6144H17.5383L30.0254 37.3116L33.9974 30.0903Z" fill="white"/>
<path d="M40.3599 16.6882C40.3604 17.0531 40.265 17.4117 40.0833 17.7282L37.9243 21.5703H31.723L27.9382 14.6145L38.2793 14.6096C38.6443 14.6098 39.0027 14.706 39.3188 14.8884C39.6348 15.0708 39.8974 15.3331 40.0801 15.649C40.2628 15.9649 40.3593 16.3232 40.3599 16.6882Z" fill="white"/>
</g>
<defs>
<clipPath id="clip0_6750_3062">
<rect width="48" height="48" rx="12" fill="white"/>
</clipPath>
</defs>
</svg>
