<svg xmlns="http://www.w3.org/2000/svg" width="42.563" height="50.458" viewBox="0 0 42.563 50.458">
  <g id="Group_121" data-name="Group 121" transform="translate(755.56 -316.89)">
    <path id="Path_77" data-name="Path 77" d="M-715.321,350.531v-14.5A3.281,3.281,0,0,0-713,332.893a3.286,3.286,0,0,0-3.286-3.286,3.283,3.283,0,0,0-2.242.882l-10.466-6.045a5.672,5.672,0,0,0,.338-1.929,5.625,5.625,0,0,0-5.625-5.625,5.627,5.627,0,0,0-5.627,5.625,5.622,5.622,0,0,0,.341,1.932l-10.472,6.045a3.267,3.267,0,0,0-2.237-.879,3.288,3.288,0,0,0-3.286,3.286,3.287,3.287,0,0,0,2.327,3.143v14.486a3.287,3.287,0,0,0-2.327,3.143,3.288,3.288,0,0,0,3.286,3.286,3.273,3.273,0,0,0,2.242-.885l12.552,7.246a3.3,3.3,0,0,0-.085.739,3.287,3.287,0,0,0,3.286,3.289,3.289,3.289,0,0,0,3.286-3.289,3.3,3.3,0,0,0-.085-.739l12.552-7.243a3.271,3.271,0,0,0,2.239.882A3.289,3.289,0,0,0-713,353.672,3.281,3.281,0,0,0-715.321,350.531Zm-1.923,0a3.287,3.287,0,0,0-2.327,3.143,3.3,3.3,0,0,0,.085.739l-12.552,7.246a3.261,3.261,0,0,0-2.24-.885,3.271,3.271,0,0,0-2.239.882l-12.555-7.246a3.1,3.1,0,0,0,.085-.736,3.282,3.282,0,0,0-2.322-3.141V336.039a3.282,3.282,0,0,0,2.322-3.141,3.3,3.3,0,0,0-.085-.742l10.466-6.045a5.618,5.618,0,0,0,4.328,2.031,5.623,5.623,0,0,0,4.328-2.031l10.464,6.042a3.261,3.261,0,0,0-.085.739,3.287,3.287,0,0,0,2.327,3.143Z"/>
    <path id="Path_78" data-name="Path 78" d="M-694.064,385.218v13.935a2.388,2.388,0,0,1-2.32,2.4,2.308,2.308,0,0,1-1.269-.387l-.005.008-5.584-4.652-.013-.01a1.615,1.615,0,0,0-2.034.048h0l-4.776,4.05a2.3,2.3,0,0,1-1.858.942,2.307,2.307,0,0,1-2.308-2.305V385.3a2.362,2.362,0,0,1,2.151-2.383,2.307,2.307,0,0,1,2.463,2.3v12.489l3.086-2.621,1.185-1.005a1.615,1.615,0,0,1,2.033-.047l1.256.97,3.38,2.608V385.3a2.362,2.362,0,0,1,2.151-2.383A2.307,2.307,0,0,1-694.064,385.218Z" transform="translate(-29.973 -47.879)"/>
  </g>
</svg>
