<svg width="47" height="47" viewBox="0 0 47 47" fill="none" xmlns="http://www.w3.org/2000/svg">
<mask id="mask0_4400_1361" style="mask-type:luminance" maskUnits="userSpaceOnUse" x="6" y="15" width="34" height="23">
<path d="M18.8903 37.4868L6.79199 15.4902H14.4888L21.5503 28.3208C22.4119 29.888 22.6157 31.7333 22.1168 33.4507C21.618 35.1682 20.4574 36.6172 18.8903 37.479V37.4868ZM32.9397 30.6741L24.5905 15.4965H16.8937L28.992 37.4868L32.9397 30.6741ZM39.1094 18.5132C39.2855 18.2065 39.3779 17.8589 39.3773 17.5052C39.3767 17.1515 39.2831 16.8042 39.1059 16.4981C38.9287 16.192 38.6741 15.9379 38.3676 15.7613C38.0612 15.5847 37.7137 15.4917 37.36 15.4918H27.1895L30.6787 22.2357H36.9782L39.1094 18.5132Z" fill="white"/>
</mask>
<g mask="url(#mask0_4400_1361)">
<path d="M23.4604 46.5077C35.9 46.5077 45.9843 36.4235 45.9843 23.9839C45.9843 11.5443 35.9 1.45996 23.4604 1.45996C11.0208 1.45996 0.936523 11.5443 0.936523 23.9839C0.936523 36.4235 11.0208 46.5077 23.4604 46.5077Z" fill="white"/>
</g>
</svg>
