<svg width="33" height="23" viewBox="0 0 33 23" fill="none" xmlns="http://www.w3.org/2000/svg">
<g clip-path="url(#clip0_4408_1368)">
<path d="M12.2008 22.4868L0.102539 0.490234H7.79931L14.8608 13.3208C15.7224 14.888 15.9262 16.7333 15.4274 18.4507C14.9285 20.1682 13.7679 21.6172 12.2008 22.479V22.4868ZM26.2503 15.6741L17.901 0.496493H10.2043L22.3025 22.4868L26.2503 15.6741ZM32.4199 3.51324C32.5961 3.20654 32.6885 2.85891 32.6879 2.50522C32.6873 2.15153 32.5936 1.80421 32.4164 1.49812C32.2392 1.19203 31.9846 0.937929 31.6782 0.7613C31.3718 0.584671 31.0243 0.49173 30.6706 0.491799H20.5L23.9893 7.23567H30.2888L32.4199 3.51324Z" fill="white"/>
</g>
<defs>
<clipPath id="clip0_4408_1368">
<rect width="32.5853" height="21.9966" fill="white" transform="translate(0.102539 0.490234)"/>
</clipPath>
</defs>
</svg>
