<svg width="39" height="40" viewBox="0 0 39 40" fill="none" xmlns="http://www.w3.org/2000/svg">
<path d="M24.1992 31.9234L22.5546 31.9234C22.5546 25.7115 25.6089 22.5844 28.1933 21.0549C28.2943 20.9962 28.3953 20.9375 28.4964 20.8811L5.40377 20.8811L5.40377 19.119L28.4752 19.119C28.3742 19.0626 28.2732 19.0039 28.1721 18.9451C25.6159 17.4157 22.5546 14.2886 22.5546 8.07666L24.1992 8.07666C24.1992 12.4443 25.8227 15.6254 29.025 17.5308C30.5095 18.404 32.1653 18.9458 33.8789 19.119L33.8531 19.9977L33.8789 20.8787C33.4842 20.9022 24.1992 21.5812 24.1992 31.9234Z" fill="#00FF87"/>
</svg>
