<svg xmlns="http://www.w3.org/2000/svg" xmlns:xlink="http://www.w3.org/1999/xlink" width="758" height="563" viewBox="0 0 758 563"><defs><clipPath id="a"><rect width="758" height="563" transform="translate(1164 6892)" fill="#fff" stroke="#707070" stroke-width="1"/></clipPath></defs><g transform="translate(-1164 -6892)" clip-path="url(#a)"><g transform="translate(0 1807)"><g transform="matrix(0.966, -0.259, 0.259, 0.966, -629.19, 488.096)"><path d="M519,9.47l912.42,498.74H-426.727Z" transform="translate(460 5200)" fill="#006eff"/><path d="M519,9.47,388.7,508.209H-426.727Z" transform="translate(460 5201)" fill="rgba(0,0,0,0.24)"/></g><g transform="matrix(0.966, -0.259, 0.259, 0.966, -629.19, 418.096)"><g transform="translate(460 5200)" fill="none"><path d="M519,9.47,752.9,137.324,627.081,606.9-195.773,386.413Z" stroke="none"/><path d="M 518.9830322265625 11.73968505859375 L -190.326904296875 385.8021240234375 L 625.6666259765625 604.4469604492188 L 750.563720703125 138.3245849609375 L 518.9830322265625 11.73968505859375 M 519.0000610351562 9.46966552734375 L 752.9025268554688 137.3236999511719 L 627.0808715820312 606.8965454101562 L -195.7733764648438 386.413330078125 L 519.0000610351562 9.46966552734375 Z" stroke="none"/></g></g></g></g></svg>