<svg xmlns="http://www.w3.org/2000/svg" xmlns:xlink="http://www.w3.org/1999/xlink" viewBox="0 0 34.32 84.77"><defs><style>.cls-1{fill:url(#linear-gradient);}.cls-2{fill:url(#linear-gradient-2);}.cls-3{opacity:0.76;}.cls-4{fill:#282828;}</style><linearGradient id="linear-gradient" x1="-9.01" y1="78.75" x2="18.72" y2="47.41" gradientUnits="userSpaceOnUse"><stop offset="0" stop-color="#f49c31"/><stop offset="0.63" stop-color="#f99316"/><stop offset="1" stop-color="#fb8f0b"/></linearGradient><linearGradient id="linear-gradient-2" x1="-24.85" y1="14.37" x2="26.73" y2="69.7" gradientUnits="userSpaceOnUse"><stop offset="0" stop-color="#ff9329"/><stop offset="0" stop-color="#ff9329"/><stop offset="0.13" stop-color="#ffad2d"/><stop offset="0.27" stop-color="#ffc031"/><stop offset="0.42" stop-color="#ffce33"/><stop offset="0.62" stop-color="#ffd735"/><stop offset="0.96" stop-color="#ffd935"/></linearGradient></defs><title>underconstruct</title><g id="Layer_2" data-name="Layer 2"><g id="Layer_1-2" data-name="Layer 1"><path class="cls-1" d="M23.68,61.06.1,84.64l.09.1h0L0,84.57V68L15.32,52.7a14.65,14.65,0,0,0,0-20.73l8.36,8.36A14.67,14.67,0,0,1,23.68,61.06Z"/><path class="cls-2" d="M28.4,56.67.31,84.77l-.09-.1L23.8,61.09a14.67,14.67,0,0,0,0-20.73L.12,16.68V.18L.3,0,8.65,8.35,28.53,28.22A20.2,20.2,0,0,1,28.4,56.67Z"/><g class="cls-3"><path class="cls-4" d="M6.17,12.23l.63.62a2.27,2.27,0,0,1,.25.31,1.14,1.14,0,0,1,.15.34.79.79,0,0,1,0,.34.76.76,0,0,1-.22.34.79.79,0,0,1-.35.22.7.7,0,0,1-.35,0,1,1,0,0,1-.32-.13,1.83,1.83,0,0,1-.26-.21l-.42-.42-1,.95-.25-.25Zm-.68,1.18.43.43a.71.71,0,0,0,.39.22.51.51,0,0,0,.53-.53.71.71,0,0,0-.22-.39l-.43-.43Z"/><path class="cls-4" d="M9,15.09l.54.54c.1.11.2.21.29.33a1.09,1.09,0,0,1,.19.35.66.66,0,0,1,0,.37.78.78,0,0,1-.24.38.7.7,0,0,1-.51.24,1,1,0,0,1-.58-.21l-.37,1.58-.31-.31.38-1.52-.33-.33-.95,1-.25-.26Zm-.68,1.19.22.22.22.21a.92.92,0,0,0,.25.17.62.62,0,0,0,.26.06.42.42,0,0,0,.26-.15.39.39,0,0,0,.14-.22.45.45,0,0,0,0-.23.57.57,0,0,0-.12-.21,1.63,1.63,0,0,0-.17-.2l-.35-.35Z"/><path class="cls-4" d="M10.77,21.18a1.78,1.78,0,0,1-.36-.53,1.52,1.52,0,0,1-.12-.59,1.36,1.36,0,0,1,.13-.58,1.66,1.66,0,0,1,.36-.53,1.56,1.56,0,0,1,.53-.36,1.47,1.47,0,0,1,.58-.12,1.66,1.66,0,0,1,.58.11,1.77,1.77,0,0,1,.89.9,1.47,1.47,0,0,1,.12.58,1.51,1.51,0,0,1-.12.58,1.71,1.71,0,0,1-.89.89,1.52,1.52,0,0,1-.59.12,1.49,1.49,0,0,1-.58-.11A1.66,1.66,0,0,1,10.77,21.18Zm.24-.24a1,1,0,0,0,.41.27,1,1,0,0,0,.45.08,1.24,1.24,0,0,0,.45-.11,1.36,1.36,0,0,0,.41-.28,1.42,1.42,0,0,0,.28-.41,1.35,1.35,0,0,0,.11-.45,1.19,1.19,0,0,0-.08-.45,1.22,1.22,0,0,0-.27-.41,1.33,1.33,0,0,0-.41-.27,1.19,1.19,0,0,0-.45-.08,1.24,1.24,0,0,0-.46.11,1.38,1.38,0,0,0-.4.28,1.25,1.25,0,0,0-.28.41,1.11,1.11,0,0,0,0,.9A1,1,0,0,0,11,20.94Z"/><path class="cls-4" d="M16.74,23.26l-.7-.7-1.89,1.89-.25-.25,1.89-1.89-.7-.7.23-.24L17,23Z"/><path class="cls-4" d="M17.17,27.58a1.78,1.78,0,0,1-.36-.53,1.52,1.52,0,0,1-.12-.59,1.36,1.36,0,0,1,.13-.58,1.66,1.66,0,0,1,.36-.53,1.56,1.56,0,0,1,.53-.36,1.47,1.47,0,0,1,.58-.12,1.66,1.66,0,0,1,.58.11,1.77,1.77,0,0,1,.89.9,1.47,1.47,0,0,1,.12.58,1.51,1.51,0,0,1-.12.58,1.71,1.71,0,0,1-.89.89,1.52,1.52,0,0,1-.59.12,1.49,1.49,0,0,1-.58-.11A1.66,1.66,0,0,1,17.17,27.58Zm.24-.24a1,1,0,0,0,.41.27,1,1,0,0,0,.45.08,1.24,1.24,0,0,0,.45-.11,1.36,1.36,0,0,0,.41-.28,1.42,1.42,0,0,0,.28-.41,1.35,1.35,0,0,0,.11-.45,1.19,1.19,0,0,0-.08-.45,1.22,1.22,0,0,0-.27-.41,1.33,1.33,0,0,0-.41-.27,1.21,1.21,0,0,0-.46-.08,1.24,1.24,0,0,0-.45.11,1.38,1.38,0,0,0-.4.28,1.25,1.25,0,0,0-.28.41,1.11,1.11,0,0,0,0,.9A1,1,0,0,0,17.41,27.34Z"/><path class="cls-4" d="M23.14,29.66l-.7-.7-1.89,1.89-.25-.25,1.89-1.89-.7-.7.23-.24,1.65,1.66Z"/><path class="cls-4" d="M24.05,32.52l.42-2,.32.32-.36,1.56L26,32.05l.3.31-2,.41-.92.92-.25-.26Z"/><path class="cls-4" d="M27.63,33.68l.63.63a1.79,1.79,0,0,1,.25.31.94.94,0,0,1,.14.33.69.69,0,0,1,0,.35.94.94,0,0,1-.22.34.79.79,0,0,1-.35.22.83.83,0,0,1-.35,0,1.27,1.27,0,0,1-.32-.13,2,2,0,0,1-.26-.21l-.43-.43-.95,1-.25-.25ZM27,34.87l.42.43a.77.77,0,0,0,.4.22A.51.51,0,0,0,28.3,35a.84.84,0,0,0-.22-.4l-.43-.42Z"/><path class="cls-4" d="M30.5,36.55l1.33,1.33-.23.24L30.52,37l-.67.66,1,1-.23.24-1-1-.76.75L30,39.83l-.24.23-1.38-1.39Z"/></g></g></g></svg>