<svg xmlns="http://www.w3.org/2000/svg" width="1991.234" height="1204.92" viewBox="0 0 1991.234 1204.92"><g transform="translate(0 2.92)"><rect width="1982" height="1204" transform="translate(0 -2)" fill="none"/><path d="M2832.231-12.328c-85.639,140.025,1.981,309.78,128.27,356.378s291.7-56.927,290.725,133.4,50.024,192.69,155.426,189.268,230.929-23.041,296.87,143.429,191.4,144.983,293.613,115.415c6.787-1.963,19.455-10.147,32.433-19.417,18.917-13.513.967-921.065.967-921.065S2832.446-13.128,2832.231-12.328Z" transform="translate(-2047 12)" fill="#1d1d1d"/><path d="M2793.969,59.132c-38.989,29.7-27.882,60.293,0,77.291,56.255,30.35,103.466,63.9,103.109,133.967s71.529,41.242,92.706,36.276,76-27.671,99.944,7.066c28.71,65.825,101.892,78.712,141.44,65.621.085.086.824-319.687.824-319.687S2794.354,59.1,2793.969,59.132Z" transform="translate(-1249.677 -61)" fill="#006eff"/></g></svg>